<svg width="141" height="34" viewBox="0 0 141 34" fill="none" xmlns="http://www.w3.org/2000/svg">
<circle cx="14.5" cy="14.5" r="13" stroke="white" stroke-width="3"/>
<line x1="7.12132" y1="15.1538" x2="11.9231" y2="19.9556" stroke="#B3FFCC" stroke-width="3" stroke-linecap="round"/>
<line x1="11.9231" y1="19.9556" x2="20.8787" y2="11" stroke="#B3FFCC" stroke-width="3" stroke-linecap="round"/>
<path d="M27.7678 24.2322L26 22.4645L22.4645 26L24.2322 27.7678L26 26L27.7678 24.2322ZM29.2322 32.7678C30.2085 33.7441 31.7915 33.7441 32.7678 32.7678C33.7441 31.7915 33.7441 30.2085 32.7678 29.2322L31 31L29.2322 32.7678ZM26 26L24.2322 27.7678L29.2322 32.7678L31 31L32.7678 29.2322L27.7678 24.2322L26 26Z" fill="white"/>
<path d="M46.208 20.448H52.736C53.264 20.448 53.648 20.512 53.888 20.64C54.128 20.752 54.288 20.936 54.368 21.192C54.448 21.448 54.488 21.792 54.488 22.224C54.488 22.64 54.448 22.976 54.368 23.232C54.288 23.488 54.152 23.664 53.96 23.76C53.656 23.92 53.24 24 52.712 24H44.072C42.952 24 42.296 23.696 42.104 23.088C42.008 22.832 41.96 22.424 41.96 21.864V8.52C41.96 8.152 41.968 7.88 41.984 7.704C42.016 7.512 42.096 7.296 42.224 7.056C42.448 6.624 43.072 6.408 44.096 6.408C45.216 6.408 45.88 6.704 46.088 7.296C46.168 7.568 46.208 7.984 46.208 8.544V20.448ZM55.6859 17.688C55.6859 15.768 56.3579 14.184 57.7019 12.936C59.0459 11.688 60.5819 11.064 62.3099 11.064C64.0379 11.064 65.5659 11.688 66.8939 12.936C68.2219 14.168 68.8859 15.744 68.8859 17.664C68.8859 18.992 68.5419 20.176 67.8539 21.216C67.1659 22.24 66.3259 23 65.3339 23.496C64.3579 23.976 63.3419 24.216 62.2859 24.216C61.2299 24.216 60.2059 23.96 59.2139 23.448C58.2219 22.92 57.3819 22.152 56.6939 21.144C56.0219 20.12 55.6859 18.968 55.6859 17.688ZM60.7019 19.416C61.2139 19.8 61.7339 19.992 62.2619 19.992C62.7899 19.992 63.3179 19.792 63.8459 19.392C64.3739 18.992 64.6379 18.4 64.6379 17.616C64.6379 16.832 64.3899 16.248 63.8939 15.864C63.3979 15.48 62.8619 15.288 62.2859 15.288C61.7099 15.288 61.1739 15.488 60.6779 15.888C60.1819 16.288 59.9339 16.88 59.9339 17.664C59.9339 18.432 60.1899 19.016 60.7019 19.416ZM65.2766 17.688C65.2766 15.768 65.9486 14.184 67.2926 12.936C68.6366 11.688 70.1726 11.064 71.9006 11.064C73.6286 11.064 75.1566 11.688 76.4846 12.936C77.8126 14.168 78.4766 15.744 78.4766 17.664C78.4766 18.992 78.1326 20.176 77.4446 21.216C76.7566 22.24 75.9166 23 74.9246 23.496C73.9486 23.976 72.9326 24.216 71.8766 24.216C70.8206 24.216 69.7966 23.96 68.8046 23.448C67.8126 22.92 66.9726 22.152 66.2846 21.144C65.6126 20.12 65.2766 18.968 65.2766 17.688ZM70.2926 19.416C70.8046 19.8 71.3246 19.992 71.8526 19.992C72.3806 19.992 72.9086 19.792 73.4366 19.392C73.9646 18.992 74.2286 18.4 74.2286 17.616C74.2286 16.832 73.9806 16.248 73.4846 15.864C72.9886 15.48 72.4526 15.288 71.8766 15.288C71.3006 15.288 70.7646 15.488 70.2686 15.888C69.7726 16.288 69.5246 16.88 69.5246 17.664C69.5246 18.432 69.7806 19.016 70.2926 19.416ZM87.4672 17.664L90.6592 20.304C91.0592 20.64 91.3072 20.896 91.4032 21.072C91.5152 21.248 91.5712 21.416 91.5712 21.576C91.5712 21.96 91.3232 22.48 90.8272 23.136C90.2832 23.808 89.8032 24.144 89.3872 24.144C89.0352 24.144 88.5472 23.912 87.9232 23.448L87.6832 23.28C87.3152 22.976 86.7472 22.448 85.9792 21.696C85.2112 20.928 84.6272 20.384 84.2272 20.064V21.912C84.2272 22.28 84.2112 22.56 84.1792 22.752C84.1632 22.928 84.0912 23.136 83.9632 23.376C83.7552 23.792 83.1392 24 82.1152 24C81.1072 24 80.4912 23.784 80.2672 23.352C80.1552 23.112 80.0832 22.904 80.0512 22.728C80.0352 22.536 80.0272 22.256 80.0272 21.888V7.512C80.0272 7.144 80.0352 6.872 80.0512 6.696C80.0832 6.504 80.1552 6.288 80.2672 6.048C80.4912 5.616 81.1152 5.4 82.1392 5.4C82.9072 5.4 83.4512 5.536 83.7712 5.808C84.0432 6.032 84.1872 6.384 84.2032 6.864C84.2192 7.008 84.2272 7.232 84.2272 7.536V15.144C84.5152 14.904 84.9472 14.496 85.5232 13.92C86.1152 13.344 86.5552 12.936 86.8432 12.696L87.1312 12.504C87.6912 12.072 88.1712 11.856 88.5712 11.856C88.9712 11.856 89.4272 12.184 89.9392 12.84C90.4672 13.48 90.7312 13.984 90.7312 14.352C90.7312 14.72 90.4352 15.152 89.8432 15.648L87.4672 17.664ZM92.8944 8.52C92.8944 8.152 92.9024 7.88 92.9184 7.704C92.9504 7.512 93.0304 7.296 93.1584 7.056C93.3824 6.624 94.0064 6.408 95.0304 6.408C96.1504 6.408 96.8144 6.704 97.0224 7.296C97.1024 7.568 97.1424 7.984 97.1424 8.544V21.888C97.1424 22.272 97.1264 22.552 97.0944 22.728C97.0784 22.904 97.0064 23.112 96.8784 23.352C96.6544 23.784 96.0304 24 95.0064 24C93.8864 24 93.2304 23.696 93.0384 23.088C92.9424 22.832 92.8944 22.424 92.8944 21.864V8.52ZM106.402 15.6L104.842 15.504V18.816C104.842 19.248 104.906 19.56 105.034 19.752C105.178 19.944 105.434 20.04 105.802 20.04C106.186 20.04 106.474 20.056 106.666 20.088C106.874 20.104 107.09 20.176 107.314 20.304C107.682 20.512 107.866 21.048 107.866 21.912C107.866 22.92 107.642 23.536 107.194 23.76C106.954 23.872 106.738 23.944 106.546 23.976C106.37 23.992 106.106 24 105.754 24C104.09 24 102.826 23.624 101.962 22.872C101.098 22.12 100.666 20.848 100.666 19.056V15.504C100.362 15.552 100.034 15.576 99.6824 15.576C99.3304 15.576 99.0344 15.44 98.7944 15.168C98.5704 14.896 98.4584 14.432 98.4584 13.776C98.4584 13.12 98.4984 12.648 98.5784 12.36C98.6584 12.056 98.7704 11.84 98.9144 11.712C99.1704 11.504 99.4904 11.4 99.8744 11.4L100.666 11.496V9.024C100.666 8.656 100.674 8.384 100.69 8.208C100.722 8.032 100.802 7.84 100.93 7.632C101.138 7.232 101.754 7.032 102.778 7.032C103.866 7.032 104.514 7.328 104.722 7.92C104.802 8.176 104.842 8.584 104.842 9.144V11.496C105.546 11.432 106.074 11.4 106.426 11.4C106.794 11.4 107.066 11.416 107.242 11.448C107.434 11.464 107.65 11.536 107.89 11.664C108.306 11.872 108.514 12.488 108.514 13.512C108.514 14.52 108.298 15.136 107.866 15.36C107.626 15.472 107.41 15.544 107.218 15.576C107.042 15.592 106.77 15.6 106.402 15.6Z" fill="white"/>
<path d="M121.336 7.056C121.496 6.8 121.728 6.624 122.032 6.528C122.336 6.432 122.712 6.384 123.16 6.384C123.624 6.384 123.992 6.424 124.264 6.504C124.536 6.584 124.744 6.68 124.888 6.792C125.032 6.904 125.136 7.072 125.2 7.296C125.296 7.568 125.344 7.984 125.344 8.544V15.792C125.344 17.904 124.688 19.824 123.376 21.552C122.736 22.368 121.912 23.032 120.904 23.544C119.896 24.04 118.776 24.288 117.544 24.288C116.328 24.288 115.216 24.032 114.208 23.52C113.216 23.008 112.408 22.336 111.784 21.504C110.488 19.808 109.84 17.888 109.84 15.744V8.52C109.84 8.136 109.848 7.856 109.864 7.68C109.896 7.488 109.976 7.272 110.104 7.032C110.232 6.792 110.448 6.624 110.752 6.528C111.056 6.432 111.464 6.384 111.976 6.384C112.488 6.384 112.896 6.432 113.2 6.528C113.504 6.624 113.712 6.792 113.824 7.032C114.016 7.4 114.112 7.904 114.112 8.544V15.744C114.112 16.72 114.352 17.648 114.832 18.528C115.072 18.976 115.432 19.336 115.912 19.608C116.392 19.88 116.96 20.016 117.616 20.016C118.784 20.016 119.656 19.584 120.232 18.72C120.808 17.856 121.096 16.856 121.096 15.72V8.376C121.096 7.752 121.176 7.312 121.336 7.056ZM127.254 27.432V13.416C127.254 13.048 127.262 12.776 127.278 12.6C127.31 12.424 127.382 12.224 127.494 12C127.718 11.568 128.254 11.352 129.102 11.352C129.95 11.352 130.518 11.464 130.806 11.688C131.11 11.896 131.286 12.208 131.334 12.624C131.942 11.792 132.894 11.376 134.19 11.376C135.502 11.376 136.742 11.992 137.91 13.224C139.078 14.456 139.662 15.888 139.662 17.52C139.662 19.152 139.078 20.584 137.91 21.816C136.758 23.048 135.526 23.664 134.214 23.664C132.902 23.664 131.95 23.296 131.358 22.56V27.408C131.358 27.776 131.342 28.048 131.31 28.224C131.294 28.4 131.222 28.6 131.094 28.824C130.982 29.064 130.782 29.232 130.494 29.328C130.206 29.424 129.814 29.472 129.318 29.472C128.822 29.472 128.422 29.424 128.118 29.328C127.83 29.232 127.622 29.072 127.494 28.848C127.382 28.624 127.31 28.424 127.278 28.248C127.262 28.072 127.254 27.8 127.254 27.432ZM132.006 16.128C131.638 16.56 131.454 17.032 131.454 17.544C131.454 18.056 131.638 18.528 132.006 18.96C132.39 19.376 132.87 19.584 133.446 19.584C134.038 19.584 134.534 19.376 134.934 18.96C135.35 18.544 135.558 18.072 135.558 17.544C135.558 17.016 135.366 16.544 134.982 16.128C134.598 15.696 134.094 15.48 133.47 15.48C132.862 15.48 132.374 15.696 132.006 16.128Z" fill="white"/>
<path d="M121.336 7.056C121.496 6.8 121.728 6.624 122.032 6.528C122.336 6.432 122.712 6.384 123.16 6.384C123.624 6.384 123.992 6.424 124.264 6.504C124.536 6.584 124.744 6.68 124.888 6.792C125.032 6.904 125.136 7.072 125.2 7.296C125.296 7.568 125.344 7.984 125.344 8.544V15.792C125.344 17.904 124.688 19.824 123.376 21.552C122.736 22.368 121.912 23.032 120.904 23.544C119.896 24.04 118.776 24.288 117.544 24.288C116.328 24.288 115.216 24.032 114.208 23.52C113.216 23.008 112.408 22.336 111.784 21.504C110.488 19.808 109.84 17.888 109.84 15.744V8.52C109.84 8.136 109.848 7.856 109.864 7.68C109.896 7.488 109.976 7.272 110.104 7.032C110.232 6.792 110.448 6.624 110.752 6.528C111.056 6.432 111.464 6.384 111.976 6.384C112.488 6.384 112.896 6.432 113.2 6.528C113.504 6.624 113.712 6.792 113.824 7.032C114.016 7.4 114.112 7.904 114.112 8.544V15.744C114.112 16.72 114.352 17.648 114.832 18.528C115.072 18.976 115.432 19.336 115.912 19.608C116.392 19.88 116.96 20.016 117.616 20.016C118.784 20.016 119.656 19.584 120.232 18.72C120.808 17.856 121.096 16.856 121.096 15.72V8.376C121.096 7.752 121.176 7.312 121.336 7.056ZM127.254 27.432V13.416C127.254 13.048 127.262 12.776 127.278 12.6C127.31 12.424 127.382 12.224 127.494 12C127.718 11.568 128.254 11.352 129.102 11.352C129.95 11.352 130.518 11.464 130.806 11.688C131.11 11.896 131.286 12.208 131.334 12.624C131.942 11.792 132.894 11.376 134.19 11.376C135.502 11.376 136.742 11.992 137.91 13.224C139.078 14.456 139.662 15.888 139.662 17.52C139.662 19.152 139.078 20.584 137.91 21.816C136.758 23.048 135.526 23.664 134.214 23.664C132.902 23.664 131.95 23.296 131.358 22.56V27.408C131.358 27.776 131.342 28.048 131.31 28.224C131.294 28.4 131.222 28.6 131.094 28.824C130.982 29.064 130.782 29.232 130.494 29.328C130.206 29.424 129.814 29.472 129.318 29.472C128.822 29.472 128.422 29.424 128.118 29.328C127.83 29.232 127.622 29.072 127.494 28.848C127.382 28.624 127.31 28.424 127.278 28.248C127.262 28.072 127.254 27.8 127.254 27.432ZM132.006 16.128C131.638 16.56 131.454 17.032 131.454 17.544C131.454 18.056 131.638 18.528 132.006 18.96C132.39 19.376 132.87 19.584 133.446 19.584C134.038 19.584 134.534 19.376 134.934 18.96C135.35 18.544 135.558 18.072 135.558 17.544C135.558 17.016 135.366 16.544 134.982 16.128C134.598 15.696 134.094 15.48 133.47 15.48C132.862 15.48 132.374 15.696 132.006 16.128Z" fill="#B3FFCC"/>
</svg>
